<svg width="59" height="78" viewBox="0 0 59 78" fill="none" xmlns="http://www.w3.org/2000/svg">
<path d="M29.8853 76.8015C14.877 45.0022 11.1 33.5943 11.0502 27.2039" stroke="white" stroke-opacity="0.4" stroke-width="2"/>
<path d="M18.2255 35.05C18.8982 40.7743 22.1569 49.961 29.8105 76.7269" stroke="white" stroke-opacity="0.4" stroke-width="2"/>
<path d="M32.7256 44.8208C33.3983 51.4333 33.5777 59.4049 29.8107 76.5778" stroke="white" stroke-opacity="0.4" stroke-width="2"/>
<path d="M30.8571 29.665C30.1844 36.2776 26.1184 59.5387 29.8854 76.7115" stroke="white" stroke-opacity="0.4" stroke-width="2"/>
<path d="M46.9268 34.7539C46.2292 42.7235 41.5304 54.9198 29.8108 76.6523" stroke="white" stroke-opacity="0.4" stroke-width="2"/>
<ellipse rx="12.4072" ry="12.3808" transform="matrix(-1 0 0 1 46.1792 22.7289)" fill="url(#paint0_linear)"/>
<ellipse rx="9.79124" ry="9.77036" transform="matrix(-1 0 0 1 31.7539 20.1185)" fill="url(#paint1_linear)"/>
<ellipse rx="7.47423" ry="7.45829" transform="matrix(-1 0 0 1 18.3751 27.6514)" fill="url(#paint2_linear)"/>
<ellipse rx="11.1366" ry="11.1129" transform="matrix(-1 0 0 1 33.0992 33.8419)" fill="url(#paint3_linear)"/>
<ellipse rx="13.3789" ry="13.3503" transform="matrix(-1 0 0 1 13.9654 14.1519)" fill="url(#paint4_linear)"/>
<defs>
<linearGradient id="paint0_linear" x1="2.57223" y1="-8.22868" x2="18.026" y2="26.7488" gradientUnits="userSpaceOnUse">
<stop stop-color="#B517F5"/>
<stop offset="1" stop-color="#FF1CF6"/>
</linearGradient>
<linearGradient id="paint1_linear" x1="2.02989" y1="-6.49372" x2="14.2253" y2="21.109" gradientUnits="userSpaceOnUse">
<stop stop-color="#B517F5"/>
<stop offset="1" stop-color="#FF1CF6"/>
</linearGradient>
<linearGradient id="paint2_linear" x1="1.54954" y1="-4.95704" x2="10.859" y2="16.1137" gradientUnits="userSpaceOnUse">
<stop stop-color="#B517F5"/>
<stop offset="1" stop-color="#FF1CF6"/>
</linearGradient>
<linearGradient id="paint3_linear" x1="2.30881" y1="-7.38598" x2="16.1799" y2="24.0094" gradientUnits="userSpaceOnUse">
<stop stop-color="#B517F5"/>
<stop offset="1" stop-color="#FF1CF6"/>
</linearGradient>
<linearGradient id="paint4_linear" x1="2.77367" y1="-8.87309" x2="19.4377" y2="28.8435" gradientUnits="userSpaceOnUse">
<stop stop-color="#B517F5"/>
<stop offset="1" stop-color="#FF1CF6"/>
</linearGradient>
</defs>
</svg>
