<svg width="92" height="88" viewBox="0 0 92 88" fill="none" xmlns="http://www.w3.org/2000/svg">
<path fill-rule="evenodd" clip-rule="evenodd" d="M40.043 43.9497C35.8571 47.0826 30.6175 48.945 24.9316 48.945C11.2181 48.945 0.101074 38.1116 0.101074 24.7478C0.101074 11.384 11.2181 0.550537 24.9316 0.550537C32.7987 0.550537 39.8113 4.11587 44.3607 9.67892C46.9643 8.54554 49.8519 7.91499 52.8916 7.91499C59.8074 7.91499 65.9359 11.179 69.7235 16.2029C71.4024 15.6048 73.211 15.2791 75.0957 15.2791C83.9226 15.2791 91.0782 22.4229 91.0782 31.2352C91.0782 40.0476 83.9226 47.1914 75.0957 47.1914C71.535 47.1914 68.2462 46.0289 65.5894 44.0632C62.0747 46.6847 57.6712 48.2437 52.8916 48.2437C48.0433 48.2437 43.5821 46.6396 40.043 43.9497Z" fill="white"/>
<rect x="58.1714" y="58.6238" width="3.87136" height="11.6147" rx="1.93568" fill="white" fill-opacity="0.2"/>
<rect x="50.4287" y="66.3669" width="3.87136" height="11.6147" rx="1.93568" fill="white" fill-opacity="0.2"/>
<rect x="65.9143" y="58.6238" width="3.87136" height="17.422" rx="1.93568" fill="white" fill-opacity="0.2"/>
<rect x="50.4287" y="54.7527" width="3.87136" height="7.74312" rx="1.93568" fill="white" fill-opacity="0.2"/>
<rect x="65.9143" y="79.9174" width="3.87136" height="7.74312" rx="1.93568" fill="white" fill-opacity="0.2"/>
<rect x="73.657" y="54.7523" width="3.87136" height="17.422" rx="1.93568" fill="white" fill-opacity="0.2"/>
</svg>
