<svg width="154" height="113" viewBox="0 0 154 113" fill="none" xmlns="http://www.w3.org/2000/svg">
<rect x="0.130127" width="152.919" height="112.275" rx="10" fill="url(#paint0_linear)"/>
<path fill-rule="evenodd" clip-rule="evenodd" d="M71.043 56.9497C66.8571 60.0826 61.6175 61.945 55.9316 61.945C42.2181 61.945 31.1011 51.1116 31.1011 37.7478C31.1011 24.384 42.2181 13.5505 55.9316 13.5505C63.7987 13.5505 70.8113 17.1159 75.3607 22.6789C77.9643 21.5455 80.8519 20.915 83.8916 20.915C90.8074 20.915 96.9359 24.179 100.723 29.2029C102.402 28.6048 104.211 28.2791 106.096 28.2791C114.923 28.2791 122.078 35.4229 122.078 44.2352C122.078 53.0476 114.923 60.1914 106.096 60.1914C102.535 60.1914 99.2462 59.0289 96.5894 57.0632C93.0747 59.6847 88.6712 61.2437 83.8916 61.2437C79.0433 61.2437 74.5821 59.6396 71.043 56.9497Z" fill="white"/>
<rect x="89.1714" y="71.6238" width="3.87136" height="11.6147" rx="1.93568" fill="white" fill-opacity="0.2"/>
<rect x="81.4287" y="79.3669" width="3.87136" height="11.6147" rx="1.93568" fill="white" fill-opacity="0.2"/>
<rect x="96.9143" y="71.6238" width="3.87136" height="17.422" rx="1.93568" fill="white" fill-opacity="0.2"/>
<rect x="81.4287" y="67.7527" width="3.87136" height="7.74312" rx="1.93568" fill="white" fill-opacity="0.2"/>
<rect x="96.9143" y="92.9174" width="3.87136" height="7.74312" rx="1.93568" fill="white" fill-opacity="0.2"/>
<rect x="104.657" y="67.7523" width="3.87136" height="17.422" rx="1.93568" fill="white" fill-opacity="0.2"/>
<defs>
<linearGradient id="paint0_linear" x1="60.5864" y1="-8.91073" x2="190.812" y2="199.336" gradientUnits="userSpaceOnUse">
<stop stop-color="#000AFD"/>
<stop offset="1" stop-color="#B517F5"/>
</linearGradient>
</defs>
</svg>
