<svg width="54" height="51" viewBox="0 0 54 51" fill="none" xmlns="http://www.w3.org/2000/svg">
<rect x="9" y="9" width="36" height="36" rx="12" fill="#000AFD"/>
<circle r="7.5" transform="matrix(-1 0 0 1 7.5 22.5)" fill="url(#paint0_linear)"/>
<circle r="7.5" transform="matrix(-1 0 0 1 7.5 22.5)" fill="url(#paint1_linear)"/>
<circle r="7.5" transform="matrix(-1 0 0 1 27 7.5)" fill="url(#paint2_linear)"/>
<circle r="7.5" transform="matrix(-1 0 0 1 27 7.5)" fill="url(#paint3_linear)"/>
<circle r="7.5" transform="matrix(-1 0 0 1 15 43.5)" fill="url(#paint4_linear)"/>
<circle r="7.5" transform="matrix(-1 0 0 1 15 43.5)" fill="url(#paint5_linear)"/>
<circle r="7.5" transform="matrix(-1 0 0 1 39 43.5)" fill="url(#paint6_linear)"/>
<circle r="7.5" transform="matrix(-1 0 0 1 39 43.5)" fill="url(#paint7_linear)"/>
<circle r="7.5" transform="matrix(-1 0 0 1 46.5 22.5)" fill="url(#paint8_linear)"/>
<circle r="7.5" transform="matrix(-1 0 0 1 46.5 22.5)" fill="url(#paint9_linear)"/>
<defs>
<linearGradient id="paint0_linear" x1="7.5" y1="0" x2="7.5" y2="15" gradientUnits="userSpaceOnUse">
<stop stop-color="#000AFD"/>
<stop offset="1" stop-color="#0007B7"/>
</linearGradient>
<linearGradient id="paint1_linear" x1="1.55488" y1="-4.98476" x2="10.9299" y2="16.189" gradientUnits="userSpaceOnUse">
<stop stop-color="#FF1CF6"/>
<stop offset="1" stop-color="#000AEF"/>
</linearGradient>
<linearGradient id="paint2_linear" x1="7.5" y1="0" x2="7.5" y2="15" gradientUnits="userSpaceOnUse">
<stop stop-color="#000AFD"/>
<stop offset="1" stop-color="#0007B7"/>
</linearGradient>
<linearGradient id="paint3_linear" x1="1.55488" y1="-4.98476" x2="10.9299" y2="16.189" gradientUnits="userSpaceOnUse">
<stop stop-color="#FF1CF6"/>
<stop offset="1" stop-color="#000AEF"/>
</linearGradient>
<linearGradient id="paint4_linear" x1="7.5" y1="0" x2="7.5" y2="15" gradientUnits="userSpaceOnUse">
<stop stop-color="#000AFD"/>
<stop offset="1" stop-color="#0007B7"/>
</linearGradient>
<linearGradient id="paint5_linear" x1="1.55488" y1="-4.98476" x2="10.9299" y2="16.189" gradientUnits="userSpaceOnUse">
<stop stop-color="#FF1CF6"/>
<stop offset="1" stop-color="#000AEF"/>
</linearGradient>
<linearGradient id="paint6_linear" x1="7.5" y1="0" x2="7.5" y2="15" gradientUnits="userSpaceOnUse">
<stop stop-color="#000AFD"/>
<stop offset="1" stop-color="#0007B7"/>
</linearGradient>
<linearGradient id="paint7_linear" x1="1.55488" y1="-4.98476" x2="10.9299" y2="16.189" gradientUnits="userSpaceOnUse">
<stop stop-color="#FF1CF6"/>
<stop offset="1" stop-color="#000AEF"/>
</linearGradient>
<linearGradient id="paint8_linear" x1="7.5" y1="0" x2="7.5" y2="15" gradientUnits="userSpaceOnUse">
<stop stop-color="#000AFD"/>
<stop offset="1" stop-color="#0007B7"/>
</linearGradient>
<linearGradient id="paint9_linear" x1="1.55488" y1="-4.98476" x2="10.9299" y2="16.189" gradientUnits="userSpaceOnUse">
<stop stop-color="#FF1CF6"/>
<stop offset="1" stop-color="#000AEF"/>
</linearGradient>
</defs>
</svg>
