<svg width="52" height="51" viewBox="0 0 52 51" fill="none" xmlns="http://www.w3.org/2000/svg">
<circle r="7.5" transform="matrix(-1 0 0 1 7.5 25.5)" fill="url(#paint0_linear)"/>
<circle r="7.5" transform="matrix(-1 0 0 1 7.5 25.5)" fill="url(#paint1_linear)"/>
<circle r="7.5" transform="matrix(-1 0 0 1 7.5 43.5)" fill="url(#paint2_linear)"/>
<circle r="7.5" transform="matrix(-1 0 0 1 7.5 43.5)" fill="url(#paint3_linear)"/>
<circle r="7.5" transform="matrix(-1 0 0 1 25.5 43.5)" fill="url(#paint4_linear)"/>
<circle r="7.5" transform="matrix(-1 0 0 1 25.5 43.5)" fill="url(#paint5_linear)"/>
<circle r="7.5" transform="matrix(-1 0 0 1 25.5 25.5)" fill="url(#paint6_linear)"/>
<circle r="7.5" transform="matrix(-1 0 0 1 25.5 25.5)" fill="url(#paint7_linear)"/>
<circle r="7.5" transform="matrix(-1 0 0 1 25.5 7.5)" fill="url(#paint8_linear)"/>
<circle r="7.5" transform="matrix(-1 0 0 1 25.5 7.5)" fill="url(#paint9_linear)"/>
<circle r="7.5" transform="matrix(-1 0 0 1 43.5 7.5)" fill="url(#paint10_linear)"/>
<circle r="7.5" transform="matrix(-1 0 0 1 43.5 7.5)" fill="url(#paint11_linear)"/>
<circle r="7.5" transform="matrix(-1 0 0 1 44.5 25.5)" fill="url(#paint12_linear)"/>
<circle r="7.5" transform="matrix(-1 0 0 1 44.5 25.5)" fill="url(#paint13_linear)"/>
<circle r="7.5" transform="matrix(-1 0 0 1 44.5 43.5)" fill="url(#paint14_linear)"/>
<circle r="7.5" transform="matrix(-1 0 0 1 44.5 43.5)" fill="url(#paint15_linear)"/>
<circle r="7.5" transform="matrix(-1 0 0 1 7.5 7.5)" fill="url(#paint16_linear)"/>
<circle r="7.5" transform="matrix(-1 0 0 1 7.5 7.5)" fill="url(#paint17_linear)"/>
<defs>
<linearGradient id="paint0_linear" x1="7.5" y1="0" x2="7.5" y2="15" gradientUnits="userSpaceOnUse">
<stop stop-color="#000AFD"/>
<stop offset="1" stop-color="#0007B7"/>
</linearGradient>
<linearGradient id="paint1_linear" x1="1.55488" y1="-4.98476" x2="10.9299" y2="16.189" gradientUnits="userSpaceOnUse">
<stop stop-color="#FF1CF6"/>
<stop offset="1" stop-color="#000AEF"/>
</linearGradient>
<linearGradient id="paint2_linear" x1="7.5" y1="0" x2="7.5" y2="15" gradientUnits="userSpaceOnUse">
<stop stop-color="#000AFD"/>
<stop offset="1" stop-color="#0007B7"/>
</linearGradient>
<linearGradient id="paint3_linear" x1="1.55488" y1="-4.98476" x2="10.9299" y2="16.189" gradientUnits="userSpaceOnUse">
<stop stop-color="#FF1CF6"/>
<stop offset="1" stop-color="#000AEF"/>
</linearGradient>
<linearGradient id="paint4_linear" x1="7.5" y1="0" x2="7.5" y2="15" gradientUnits="userSpaceOnUse">
<stop stop-color="#000AFD"/>
<stop offset="1" stop-color="#0007B7"/>
</linearGradient>
<linearGradient id="paint5_linear" x1="1.55488" y1="-4.98476" x2="10.9299" y2="16.189" gradientUnits="userSpaceOnUse">
<stop stop-color="#FF1CF6"/>
<stop offset="1" stop-color="#000AEF"/>
</linearGradient>
<linearGradient id="paint6_linear" x1="7.5" y1="0" x2="7.5" y2="15" gradientUnits="userSpaceOnUse">
<stop stop-color="#000AFD"/>
<stop offset="1" stop-color="#0007B7"/>
</linearGradient>
<linearGradient id="paint7_linear" x1="1.55488" y1="-4.98476" x2="10.9299" y2="16.189" gradientUnits="userSpaceOnUse">
<stop stop-color="#FF1CF6"/>
<stop offset="1" stop-color="#000AEF"/>
</linearGradient>
<linearGradient id="paint8_linear" x1="7.5" y1="0" x2="7.5" y2="15" gradientUnits="userSpaceOnUse">
<stop stop-color="#000AFD"/>
<stop offset="1" stop-color="#0007B7"/>
</linearGradient>
<linearGradient id="paint9_linear" x1="1.55488" y1="-4.98476" x2="10.9299" y2="16.189" gradientUnits="userSpaceOnUse">
<stop stop-color="#FF1CF6"/>
<stop offset="1" stop-color="#000AEF"/>
</linearGradient>
<linearGradient id="paint10_linear" x1="7.5" y1="0" x2="7.5" y2="15" gradientUnits="userSpaceOnUse">
<stop stop-color="#000AFD"/>
<stop offset="1" stop-color="#0007B7"/>
</linearGradient>
<linearGradient id="paint11_linear" x1="1.55488" y1="-4.98476" x2="10.9299" y2="16.189" gradientUnits="userSpaceOnUse">
<stop stop-color="#FF1CF6"/>
<stop offset="1" stop-color="#000AEF"/>
</linearGradient>
<linearGradient id="paint12_linear" x1="7.5" y1="0" x2="7.5" y2="15" gradientUnits="userSpaceOnUse">
<stop stop-color="#000AFD"/>
<stop offset="1" stop-color="#0007B7"/>
</linearGradient>
<linearGradient id="paint13_linear" x1="1.55488" y1="-4.98476" x2="10.9299" y2="16.189" gradientUnits="userSpaceOnUse">
<stop stop-color="#FF1CF6"/>
<stop offset="1" stop-color="#000AEF"/>
</linearGradient>
<linearGradient id="paint14_linear" x1="7.5" y1="0" x2="7.5" y2="15" gradientUnits="userSpaceOnUse">
<stop stop-color="#000AFD"/>
<stop offset="1" stop-color="#0007B7"/>
</linearGradient>
<linearGradient id="paint15_linear" x1="1.55488" y1="-4.98476" x2="10.9299" y2="16.189" gradientUnits="userSpaceOnUse">
<stop stop-color="#FF1CF6"/>
<stop offset="1" stop-color="#000AEF"/>
</linearGradient>
<linearGradient id="paint16_linear" x1="7.5" y1="0" x2="7.5" y2="15" gradientUnits="userSpaceOnUse">
<stop stop-color="#000AFD"/>
<stop offset="1" stop-color="#0007B7"/>
</linearGradient>
<linearGradient id="paint17_linear" x1="1.55488" y1="-4.98476" x2="10.9299" y2="16.189" gradientUnits="userSpaceOnUse">
<stop stop-color="#FF1CF6"/>
<stop offset="1" stop-color="#000AEF"/>
</linearGradient>
</defs>
</svg>
